<svg fill="white" role="img" id="footer-logo" viewBox="0 0 140 31" aria-labelledby="icon-title" xmlns="http://www.w3.org/2000/svg" version="1.1">
    <title id="icon-title">Maricopa Community Colleges</title>
    <path d="M26.74,16.86l-7.52,12-3.86-7.49,10-17.22A15.23,15.23,0,0,0,1.17,21.36L12.51,1.89l6.16,11.24-4.05,6.93-2.11-3.13L5.89,27.52a15.22,15.22,0,0,0,23.4-6.19Z"></path>
    <polygon points="39.07 3.52 43.41 3.52 46.41 12.02 46.44 12.02 49.46 3.52 53.78 3.52 53.78 16.55 50.91 16.55 50.91 6.55 50.88 6.55 47.45 16.55 45.27 16.55 41.97 6.55 41.94 6.55 41.94 16.55 39.07 16.55 39.07 3.52"></polygon>
    <path d="M61.18,3.51h2.37l5.67,13H66l-1.12-2.76H59.8l-1.09,2.76H55.55Zm1.1,3.76-1.58,4h3.18Z"></path>
    <path d="M71,3.51h5a8.87,8.87,0,0,1,1.89.19,4.49,4.49,0,0,1,1.56.64,3.22,3.22,0,0,1,1.09,1.23,4.11,4.11,0,0,1,.4,1.9,3.82,3.82,0,0,1-.72,2.35A3.23,3.23,0,0,1,78.12,11l3.31,5.5H78l-2.72-5.21H73.85v5.21H71ZM73.87,8.9h2.51a2.54,2.54,0,0,0,.78-.17,1.34,1.34,0,0,0,.56-.46A1.31,1.31,0,0,0,78,7.45a1.38,1.38,0,0,0-.2-.79,1.36,1.36,0,0,0-.51-.45A2.31,2.31,0,0,0,76.57,6a5.84,5.84,0,0,0-.79-.06H73.85Z"></path>
    <rect x="83.32" y="3.51" width="2.87" height="13.02"></rect>
    <path d="M97.32,6.9a2.83,2.83,0,0,0-1-.79,3.46,3.46,0,0,0-1.43-.28A3.56,3.56,0,0,0,92.2,7a4.07,4.07,0,0,0-.79,1.33,5,5,0,0,0,0,3.35A4.17,4.17,0,0,0,92.19,13a3.54,3.54,0,0,0,1.17.87,3.38,3.38,0,0,0,1.44.31,3.23,3.23,0,0,0,1.56-.37,3.1,3.1,0,0,0,1.12-1l2.39,1.78a5,5,0,0,1-2.12,1.66,6.49,6.49,0,0,1-2.61.55,8,8,0,0,1-2.81-.48A6.43,6.43,0,0,1,90.1,15a6.22,6.22,0,0,1-1.46-2.16A7.35,7.35,0,0,1,88.12,10a7.35,7.35,0,0,1,.52-2.83A6.21,6.21,0,0,1,90.1,5a6.44,6.44,0,0,1,2.23-1.37,8,8,0,0,1,2.81-.48,7,7,0,0,1,1.15.1,6.25,6.25,0,0,1,1.18.32,5.3,5.3,0,0,1,1.11.59,4.42,4.42,0,0,1,1,.9Z"></path>
    <path d="M100.52,10A7.36,7.36,0,0,1,101,7.19,6.22,6.22,0,0,1,102.46,5a6.46,6.46,0,0,1,2.23-1.37,8.52,8.52,0,0,1,5.63,0A6.44,6.44,0,0,1,112.55,5,6.21,6.21,0,0,1,114,7.19a7.36,7.36,0,0,1,.52,2.83,7.36,7.36,0,0,1-.52,2.83A6.21,6.21,0,0,1,112.55,15a6.43,6.43,0,0,1-2.23,1.37,8.52,8.52,0,0,1-5.63,0A6.45,6.45,0,0,1,102.46,15,6.22,6.22,0,0,1,101,12.86a7.36,7.36,0,0,1-.52-2.83m3,0a4.78,4.78,0,0,0,.28,1.68,3.85,3.85,0,0,0,.82,1.32,3.74,3.74,0,0,0,1.28.87,4.59,4.59,0,0,0,3.33,0,3.74,3.74,0,0,0,1.28-.87,3.85,3.85,0,0,0,.82-1.32,5,5,0,0,0,0-3.35A3.83,3.83,0,0,0,110.47,7a3.74,3.74,0,0,0-1.28-.87,4.59,4.59,0,0,0-3.33,0,3.74,3.74,0,0,0-1.28.87,3.83,3.83,0,0,0-.82,1.33,4.8,4.8,0,0,0-.28,1.67"></path>
    <path d="M117,3.51h4.84a9.53,9.53,0,0,1,1.91.18,4.35,4.35,0,0,1,1.57.63,3.21,3.21,0,0,1,1.07,1.21,4.17,4.17,0,0,1,.4,1.92,4.44,4.44,0,0,1-.37,1.91,3.15,3.15,0,0,1-1,1.23,4.1,4.1,0,0,1-1.53.65,8.93,8.93,0,0,1-1.91.19h-2.1v5.08H117ZM119.87,9h1.91a3.74,3.74,0,0,0,.74-.07,2,2,0,0,0,.64-.25,1.32,1.32,0,0,0,.46-.48,1.51,1.51,0,0,0,.17-.76,1.29,1.29,0,0,0-.23-.8,1.53,1.53,0,0,0-.59-.47,2.56,2.56,0,0,0-.8-.21,8.34,8.34,0,0,0-.85,0h-1.47Z"></path>
    <path d="M132,3.51h2.37l5.67,13H136.8l-1.12-2.76h-5.06l-1.09,2.76h-3.16Zm1.07,3.76-1.58,4h3.18Z"></path>
    <path d="M43.38,22.61a1.63,1.63,0,0,0-.64-.52,1.88,1.88,0,0,0-.79-.17,2,2,0,0,0-.87.19,2.18,2.18,0,0,0-.69.52,2.39,2.39,0,0,0-.45.76,2.53,2.53,0,0,0-.16.9,2.62,2.62,0,0,0,.16.93,2.32,2.32,0,0,0,.45.75,2.1,2.1,0,0,0,.68.5,2.21,2.21,0,0,0,1.82,0,2.12,2.12,0,0,0,.72-.59l.51.43a2.35,2.35,0,0,1-.93.76,3,3,0,0,1-1.19.2A2.89,2.89,0,0,1,40.86,27a2.82,2.82,0,0,1-.92-.62,2.88,2.88,0,0,1-.61-1,3.17,3.17,0,0,1-.22-1.2,3.21,3.21,0,0,1,.21-1.18A2.83,2.83,0,0,1,42,21.27a3,3,0,0,1,1.12.21,2.06,2.06,0,0,1,.9.68Z"></path>
    <path d="M48.2,27.27a3.09,3.09,0,0,1-1.2-.22,2.87,2.87,0,0,1-.94-.62,2.79,2.79,0,0,1-.62-1,3.33,3.33,0,0,1,0-2.39,2.79,2.79,0,0,1,.62-1,2.88,2.88,0,0,1,.94-.62,3.28,3.28,0,0,1,2.39,0,2.88,2.88,0,0,1,.94.62,2.79,2.79,0,0,1,.62,1,3.34,3.34,0,0,1,0,2.39,2.79,2.79,0,0,1-.62,1,2.86,2.86,0,0,1-.94.62,3.09,3.09,0,0,1-1.2.23m0-.63a2.22,2.22,0,0,0,.91-.19,2.17,2.17,0,0,0,.71-.51,2.33,2.33,0,0,0,.46-.75,2.66,2.66,0,0,0,0-1.84,2.33,2.33,0,0,0-.46-.75,2.17,2.17,0,0,0-.71-.51,2.35,2.35,0,0,0-1.83,0,2.16,2.16,0,0,0-.71.51,2.32,2.32,0,0,0-.46.75,2.66,2.66,0,0,0,0,1.84,2.32,2.32,0,0,0,.46.75,2.16,2.16,0,0,0,.71.51,2.21,2.21,0,0,0,.91.19"></path>
    <polygon points="52.75 21.43 53.76 21.43 55.69 25.91 55.71 25.91 57.66 21.43 58.64 21.43 58.64 27.14 57.96 27.14 57.96 22.36 57.95 22.36 55.9 27.14 55.49 27.14 53.45 22.36 53.43 22.36 53.43 27.14 52.75 27.14 52.75 21.43"></polygon>
    <polygon points="60.55 21.43 61.55 21.43 63.48 25.91 63.5 25.91 65.45 21.43 66.43 21.43 66.43 27.14 65.75 27.14 65.75 22.36 65.74 22.36 63.69 27.14 63.28 27.14 61.24 22.36 61.22 22.36 61.22 27.14 60.55 27.14 60.55 21.43"></polygon>
    <path d="M72.61,25a3.28,3.28,0,0,1-.12.89,2.06,2.06,0,0,1-.37.74,1.81,1.81,0,0,1-.66.51,2.73,2.73,0,0,1-2,0,1.8,1.8,0,0,1-.66-.51,2.06,2.06,0,0,1-.37-.74,3.28,3.28,0,0,1-.12-.89V21.43H69v3.43a3,3,0,0,0,.07.67,1.66,1.66,0,0,0,.24.57,1.23,1.23,0,0,0,.45.4,1.75,1.75,0,0,0,1.42,0,1.23,1.23,0,0,0,.45-.4,1.67,1.67,0,0,0,.24-.57,3.06,3.06,0,0,0,.07-.67V21.43h.68Z"></path>
    <polygon points="74.5 21.43 75.35 21.43 78.65 26.18 78.67 26.18 78.67 21.43 79.34 21.43 79.34 27.14 78.49 27.14 75.19 22.41 75.17 22.41 75.17 27.14 74.5 27.14 74.5 21.43"></polygon>
    <rect x="81.25" y="21.43" width="0.68" height="5.7"></rect>
    <polygon points="87.66 22.07 85.78 22.07 85.78 27.14 85.1 27.14 85.1 22.07 83.22 22.07 83.22 21.43 87.66 21.43 87.66 22.07"></polygon>
    <polygon points="90.29 24.68 88.17 21.43 89.03 21.43 90.63 24.02 92.28 21.43 93.09 21.43 90.97 24.68 90.97 27.14 90.29 27.14 90.29 24.68"></polygon>
    <path d="M100.94,22.61a1.63,1.63,0,0,0-.64-.52,1.88,1.88,0,0,0-.79-.17,2,2,0,0,0-.87.19,2.19,2.19,0,0,0-.69.52,2.37,2.37,0,0,0-.45.76,2.53,2.53,0,0,0-.16.9,2.62,2.62,0,0,0,.16.93,2.3,2.3,0,0,0,.45.75,2.09,2.09,0,0,0,.68.5,2.21,2.21,0,0,0,1.82,0,2.1,2.1,0,0,0,.72-.59l.51.43a2.35,2.35,0,0,1-.93.76,3,3,0,0,1-1.23.24,2.89,2.89,0,0,1-1.14-.23,2.81,2.81,0,0,1-.92-.62,2.86,2.86,0,0,1-.61-1,3.16,3.16,0,0,1-.22-1.2,3.21,3.21,0,0,1,.21-1.18,2.83,2.83,0,0,1,2.68-1.86,3,3,0,0,1,1.12.21,2.06,2.06,0,0,1,.9.68Z"></path>
    <path d="M105.76,27.27a3.09,3.09,0,0,1-1.2-.23,2.86,2.86,0,0,1-.94-.62,2.79,2.79,0,0,1-.62-1,3.33,3.33,0,0,1,0-2.39,2.79,2.79,0,0,1,.62-1,2.88,2.88,0,0,1,.94-.62,3.28,3.28,0,0,1,2.39,0,2.88,2.88,0,0,1,.94.62,2.8,2.8,0,0,1,.62,1,3.34,3.34,0,0,1,0,2.39,2.8,2.8,0,0,1-.62,1A2.86,2.86,0,0,1,107,27a3.09,3.09,0,0,1-1.2.23m0-.63a2.21,2.21,0,0,0,.91-.19,2.16,2.16,0,0,0,.71-.51,2.33,2.33,0,0,0,.46-.75,2.66,2.66,0,0,0,0-1.84,2.33,2.33,0,0,0-.46-.75,2.16,2.16,0,0,0-.71-.51,2.35,2.35,0,0,0-1.83,0,2.16,2.16,0,0,0-.71.51,2.31,2.31,0,0,0-.46.75,2.66,2.66,0,0,0,0,1.84,2.31,2.31,0,0,0,.46.75,2.16,2.16,0,0,0,.71.51,2.21,2.21,0,0,0,.91.19"></path>
    <polygon points="110.31 21.43 110.99 21.43 110.99 26.5 113.6 26.5 113.6 27.14 110.31 27.14 110.31 21.43"></polygon>
    <polygon points="114.83 21.43 115.5 21.43 115.5 26.5 118.11 26.5 118.11 27.14 114.83 27.14 114.83 21.43"></polygon>
    <polygon points="119.35 21.43 122.93 21.43 122.93 22.07 120.02 22.07 120.02 23.86 122.73 23.86 122.73 24.48 120.02 24.48 120.02 26.5 123.07 26.5 123.07 27.14 119.35 27.14 119.35 21.43"></polygon>
    <path d="M129.46,26.75a4,4,0,0,1-1,.4,4.74,4.74,0,0,1-1.1.13,3.33,3.33,0,0,1-1.22-.22,2.86,2.86,0,0,1-1-.61,2.73,2.73,0,0,1-.63-1,3.19,3.19,0,0,1-.23-1.22,3.07,3.07,0,0,1,.24-1.23,2.78,2.78,0,0,1,.66-.94,3,3,0,0,1,1-.61,3.25,3.25,0,0,1,1.2-.22,3.48,3.48,0,0,1,1.08.17,2.33,2.33,0,0,1,.93.58l-.51.53a2,2,0,0,0-.7-.48,2.23,2.23,0,0,0-.85-.17,2.31,2.31,0,0,0-.91.18,2.2,2.2,0,0,0-1.21,1.24,2.68,2.68,0,0,0,0,1.89,2.26,2.26,0,0,0,.48.75,2.16,2.16,0,0,0,.74.5,2.52,2.52,0,0,0,1,.18,3.31,3.31,0,0,0,.72-.09,2.86,2.86,0,0,0,.69-.25V24.57h-1.31v-.63h2Z"></path>
    <polygon points="131.36 21.43 134.95 21.43 134.95 22.07 132.04 22.07 132.04 23.86 134.75 23.86 134.75 24.48 132.04 24.48 132.04 26.5 135.09 26.5 135.09 27.14 131.36 27.14 131.36 21.43"></polygon>
    <path d="M139.33,22.44a1,1,0,0,0-.45-.4,1.43,1.43,0,0,0-.59-.12,1.76,1.76,0,0,0-.44.06,1.31,1.31,0,0,0-.39.17.85.85,0,0,0-.28.3.87.87,0,0,0-.1.43.9.9,0,0,0,.06.34.73.73,0,0,0,.2.27,1.47,1.47,0,0,0,.37.23,4.83,4.83,0,0,0,.57.21l.64.23a2.16,2.16,0,0,1,.55.31,1.38,1.38,0,0,1,.38.46,1.53,1.53,0,0,1,.14.7,1.5,1.5,0,0,1-.62,1.26,1.91,1.91,0,0,1-.64.31,2.76,2.76,0,0,1-.75.1,2.86,2.86,0,0,1-.5,0,2.37,2.37,0,0,1-.48-.14,1.91,1.91,0,0,1-.43-.24,1.45,1.45,0,0,1-.35-.37l.58-.48a1.19,1.19,0,0,0,.51.48,1.58,1.58,0,0,0,1.14.1,1.32,1.32,0,0,0,.4-.19,1,1,0,0,0,.29-.31.8.8,0,0,0,.11-.43.91.91,0,0,0-.09-.43.78.78,0,0,0-.27-.29,2.07,2.07,0,0,0-.47-.22l-.66-.23a4.14,4.14,0,0,1-.56-.22,1.73,1.73,0,0,1-.45-.31,1.3,1.3,0,0,1-.3-.43,1.54,1.54,0,0,1-.11-.61,1.52,1.52,0,0,1,.16-.72,1.5,1.5,0,0,1,.43-.51,2,2,0,0,1,.62-.31,2.52,2.52,0,0,1,.73-.1,2.49,2.49,0,0,1,.88.15,1.73,1.73,0,0,1,.71.52Z"></path>
</svg>